# xmcd
#
# Track frame offsets: 
#        150
#        15840
#        38736
#        66283
#        84387
#        104451
#        127230
#        146901
#        166511
#        194863
#
# Disc length: 2948 seconds
#
# Revision: 0
# Processed by: cddbd v1.5.2PL0 Copyright (c) Steve Scherf et al.
# Submitted via: ExactAudioCopy v1.5
#
DISCID=880b820a
DTITLE=John Garr - Brigher Side of Maybe
DYEAR=1900
DGENRE=
TTITLE0=It is What it Is
TTITLE1=Sooner Or Later
TTITLE2=Angel Flew Away
TTITLE3=Still In Love With You
TTITLE4=Ain't No Hill for a Stepper
TTITLE5=Between The Lines
TTITLE6=The First Step
TTITLE7=Brighter Side of Maybe
TTITLE8=Shoulda Been A Good Day
TTITLE9=Let Me Show You
EXTD=
EXTT0=
EXTT1=
EXTT2=
EXTT3=
EXTT4=
EXTT5=
EXTT6=
EXTT7=
EXTT8=
EXTT9=
PLAYORDER=
